<?xml version="1.0" encoding="UTF-8"?>
<svg version="1.1" xmlns="http://www.w3.org/2000/svg" width="654" height="654">
<path d="M0 0 C4.0021673 2.00108365 6.09488407 3.84808665 9.22650146 6.98599243 C9.74036321 7.49814533 10.25422495 8.01029822 10.78365827 8.5379709 C12.50346398 10.25448365 14.2160261 11.97804453 15.92871094 13.70166016 C17.16038278 14.93389615 18.3924952 16.16569189 19.62501526 17.39707947 C22.97007414 20.741564 26.30892623 24.09218374 29.6467123 27.44392443 C33.1358403 30.94554608 36.63062436 34.44151327 40.12481689 37.93807983 C46.74085981 44.56034152 53.3517875 51.18768544 59.96090055 57.81686246 C67.48532225 65.36363078 75.01541669 72.90472793 82.54599714 80.44534993 C98.03699301 95.9572568 113.52083765 111.47628518 129 127 C128.5897524 127.54123379 128.1795048 128.08246758 127.75682545 128.64010239 C127.21774398 129.35439533 126.67866251 130.06868828 126.12324524 130.80462646 C125.58924764 131.51086025 125.05525003 132.21709404 124.50507069 132.94472885 C122.57698869 135.57764924 120.92038409 138.3130853 119.29296875 141.140625 C118.63312988 142.27862549 117.97329102 143.41662598 117.29345703 144.58911133 C116.95106995 145.18446686 116.60868286 145.77982239 116.25592041 146.39321899 C114.39209652 149.63231174 112.51025162 152.86090604 110.62890625 156.08984375 C110.24317444 156.75243698 109.85744263 157.41503021 109.46002197 158.09770203 C105.59654782 164.7196094 101.62097906 171.26978285 97.625 177.8125 C91.50889969 187.83168831 85.47801461 197.89782393 79.5 208 C73.55968737 218.03709549 67.57145829 228.04167688 61.5 238 C54.57817476 249.35695675 47.76526814 260.77557857 40.98706055 272.21875 C33.70670484 284.50854717 26.36522144 296.7608579 19 309 C33.92003007 300.31635854 48.79375742 291.56981976 63.52990723 282.57693481 C72.97799229 276.81273765 82.47515429 271.13637641 92 265.5 C102.03709232 259.55968925 112.0418 253.5716568 122 247.5 C131.9582202 241.42833088 141.9637219 235.44171044 152 229.5 C162.00431476 223.57295607 172.00082045 217.63340544 181.9543457 211.62133789 C183.18161698 210.88071813 184.40979166 210.14159307 185.63891602 209.40405273 C187.33086387 208.38823031 189.01904238 207.36613757 190.70703125 206.34375 C191.6606958 205.76818359 192.61436035 205.19261719 193.59692383 204.59960938 C196.00906289 203.13971249 196.00906289 203.13971249 197.58081055 201.22851562 C199 200 199 200 200.762043 200.11910915 C203.97498095 201.383766 205.79159986 203.42350227 208.22650146 205.86573792 C208.99729408 206.63268562 208.99729408 206.63268562 209.78365827 207.41512722 C211.50588785 209.13241038 213.21716736 210.86020594 214.92871094 212.58813477 C216.16016803 213.82043794 217.39228584 215.05208116 218.62501526 216.28311157 C221.97233198 219.6295662 225.31030696 222.98520189 228.6467123 226.34253049 C232.13405696 229.84860605 235.62987708 233.34620968 239.12481689 236.8447113 C245.74287182 243.47209723 252.35324113 250.10709466 258.96090055 256.74484342 C266.48335298 264.300807 274.01430743 271.84827207 281.54599714 279.39502633 C297.0401608 294.92056291 312.52358701 310.45677018 328 326 C326.41575185 329.83299745 323.98567705 332.27357972 321.07888794 335.19526672 C320.57364086 335.70575048 320.06839378 336.21623424 319.54783618 336.7421872 C317.85451083 338.45050805 316.15411775 340.15161069 314.45361328 341.8527832 C313.23775464 343.07626329 312.02230022 344.30014519 310.80722046 345.5243988 C307.50638992 348.84717473 304.1990087 352.16335383 300.88973093 355.47771478 C298.82394866 357.54713868 296.75947108 359.61785513 294.69543076 361.68901634 C287.49912445 368.90981127 280.29712073 376.1248728 273.09033203 383.33520508 C266.36423743 390.06494087 259.65140527 396.80771183 252.94443715 403.55650455 C247.19016058 409.34540807 241.42636613 415.12471806 235.65509975 420.89668339 C232.20611155 424.34646659 228.76126286 427.8001575 225.32608414 431.26369667 C222.09816623 434.51766701 218.85863782 437.75960066 215.60962296 440.99250221 C214.41684746 442.18345334 213.22836662 443.37872294 212.04445648 444.5784874 C210.43257696 446.21063524 208.80619946 447.82676638 207.17507935 449.43965149 C206.26694551 450.34979665 205.35881168 451.25994181 204.42315865 452.19766712 C202 454 202 454 199.80830193 453.86952496 C197.52695278 452.77253446 195.61730756 451.44321518 193.5859375 449.9296875 C188.07721545 445.97475917 182.32857394 442.56400863 176.4559021 439.18048096 C173.24426785 437.32903363 170.04205191 435.46143937 166.83984375 433.59375 C165.85522911 433.01978989 165.85522911 433.01978989 164.85072327 432.43423462 C158.24785132 428.57648319 151.71414315 424.61022913 145.1875 420.625 C135.16815268 414.50915598 125.10218021 408.47801706 115 402.5 C104.96290535 396.55968787 94.95828828 390.57151467 85 384.5 C72.86639104 377.10445048 60.65992354 369.83636129 48.43432617 362.59410095 C47.78568604 362.20984451 47.1370459 361.82558807 46.46875 361.4296875 C45.82977783 361.05119156 45.19080566 360.67269562 44.5324707 360.2827301 C35.99947642 355.22550241 27.4973674 350.11680417 19 345 C27.68364146 359.92003007 36.43018024 374.79375742 45.42306519 389.52990723 C51.18726235 398.97799229 56.86362359 408.47515429 62.5 418 C68.44031075 428.03709232 74.4283432 438.0418 80.5 448 C86.57166751 457.95821757 92.55847508 467.96361388 98.5 478 C104.40559499 487.96966685 110.3278335 497.92878386 116.32373047 507.84448242 C117.05723276 509.05825024 117.78952359 510.27275113 118.52050781 511.48803711 C119.52959935 513.16477176 120.54398716 514.83831554 121.55859375 516.51171875 C122.12892334 517.45490967 122.69925293 518.39810059 123.28686523 519.36987305 C125.02099926 522.03223956 127.01513864 524.5189233 129 527 C87.09 568.91 45.18 610.82 2 654 C-2.0021673 651.99891635 -4.09488407 650.15191335 -7.22650146 647.01400757 C-7.74036321 646.50185467 -8.25422495 645.98970178 -8.78365827 645.4620291 C-10.50346398 643.74551635 -12.2160261 642.02195547 -13.92871094 640.29833984 C-15.16038278 639.06610385 -16.3924952 637.83430811 -17.62501526 636.60292053 C-20.97007414 633.258436 -24.30892623 629.90781626 -27.6467123 626.55607557 C-31.1358403 623.05445392 -34.63062436 619.55848673 -38.12481689 616.06192017 C-44.74085981 609.43965848 -51.3517875 602.81231456 -57.96090055 596.18313754 C-65.48532225 588.63636922 -73.01541669 581.09527207 -80.54599714 573.55465007 C-96.03699301 558.0427432 -111.52083765 542.52371482 -127 527 C-126.5897524 526.45876621 -126.1795048 525.91753242 -125.75682545 525.35989761 C-125.21774398 524.64560467 -124.67866251 523.93131172 -124.12324524 523.19537354 C-123.58924764 522.48913975 -123.05525003 521.78290596 -122.50507069 521.05527115 C-120.57698869 518.42235076 -118.92038409 515.6869147 -117.29296875 512.859375 C-116.63312988 511.72137451 -115.97329102 510.58337402 -115.29345703 509.41088867 C-114.95106995 508.81553314 -114.60868286 508.22017761 -114.25592041 507.60678101 C-112.39209652 504.36768826 -110.51025162 501.13909396 -108.62890625 497.91015625 C-108.24317444 497.24756302 -107.85744263 496.58496979 -107.46002197 495.90229797 C-103.59654782 489.2803906 -99.62097906 482.73021715 -95.625 476.1875 C-89.50889969 466.16831169 -83.47801461 456.10217607 -77.5 446 C-71.55968737 435.96290451 -65.57145829 425.95832312 -59.5 416 C-52.57817476 404.64304325 -45.76526814 393.22442143 -38.98706055 381.78125 C-31.70670484 369.49145283 -24.36522144 357.2391421 -17 345 C-31.92003007 353.68364146 -46.79375742 362.43018024 -61.52990723 371.42306519 C-70.97799229 377.18726235 -80.47515429 382.86362359 -90 388.5 C-100.03709232 394.44031075 -110.0418 400.4283432 -120 406.5 C-129.9582202 412.57166912 -139.9637219 418.55828956 -150 424.5 C-160.00431476 430.42704393 -170.00082045 436.36659456 -179.9543457 442.37866211 C-181.18161698 443.11928187 -182.40979166 443.85840693 -183.63891602 444.59594727 C-185.33086387 445.61176969 -187.01904238 446.63386243 -188.70703125 447.65625 C-189.6606958 448.23181641 -190.61436035 448.80738281 -191.59692383 449.40039062 C-194.00906289 450.86028751 -194.00906289 450.86028751 -195.58081055 452.77148438 C-197 454 -197 454 -198.762043 453.88089085 C-201.97498095 452.616234 -203.79159986 450.57649773 -206.22650146 448.13426208 C-206.74036321 447.62296362 -207.25422495 447.11166515 -207.78365827 446.58487278 C-209.50588785 444.86758962 -211.21716736 443.13979406 -212.92871094 441.41186523 C-214.16016803 440.17956206 -215.39228584 438.94791884 -216.62501526 437.71688843 C-219.97233198 434.3704338 -223.31030696 431.01479811 -226.6467123 427.65746951 C-230.13405696 424.15139395 -233.62987708 420.65379032 -237.12481689 417.1552887 C-243.74287182 410.52790277 -250.35324113 403.89290534 -256.96090055 397.25515658 C-264.48335298 389.699193 -272.01430743 382.15172793 -279.54599714 374.60497367 C-295.0401608 359.07943709 -310.52358701 343.54322982 -326 328 C-324.41575185 324.16700255 -321.98567705 321.72642028 -319.07888794 318.80473328 C-318.57364086 318.29424952 -318.06839378 317.78376576 -317.54783618 317.2578128 C-315.85451083 315.54949195 -314.15411775 313.84838931 -312.45361328 312.1472168 C-311.23775464 310.92373671 -310.02230022 309.69985481 -308.80722046 308.4756012 C-305.50638992 305.15282527 -302.1990087 301.83664617 -298.88973093 298.52228522 C-296.82394866 296.45286132 -294.75947108 294.38214487 -292.69543076 292.31098366 C-285.49912445 285.09018873 -278.29712073 277.8751272 -271.09033203 270.66479492 C-264.36423743 263.93505913 -257.65140527 257.19228817 -250.94443715 250.44349545 C-245.19016058 244.65459193 -239.42636613 238.87528194 -233.65509975 233.10331661 C-230.20611155 229.65353341 -226.76126286 226.1998425 -223.32608414 222.73630333 C-220.09816623 219.48233299 -216.85863782 216.24039934 -213.60962296 213.00749779 C-212.41684746 211.81654666 -211.22836662 210.62127706 -210.04445648 209.4215126 C-208.43257696 207.78936476 -206.80619946 206.17323362 -205.17507935 204.56034851 C-204.26694551 203.65020335 -203.35881168 202.74005819 -202.42315865 201.80233288 C-200 200 -200 200 -197.80830193 200.13047504 C-195.52695278 201.22746554 -193.61730756 202.55678482 -191.5859375 204.0703125 C-186.07721545 208.02524083 -180.32857394 211.43599137 -174.4559021 214.81951904 C-171.24426785 216.67096637 -168.04205191 218.53856063 -164.83984375 220.40625 C-164.18343399 220.78889008 -163.52702423 221.17153015 -162.85072327 221.56576538 C-156.24785132 225.42351681 -149.71414315 229.38977087 -143.1875 233.375 C-133.16815268 239.49084402 -123.10218021 245.52198294 -113 251.5 C-102.96290535 257.44031213 -92.95828828 263.42848533 -83 269.5 C-70.86639104 276.89554952 -58.65992354 284.16363871 -46.43432617 291.40589905 C-45.78568604 291.79015549 -45.1370459 292.17441193 -44.46875 292.5703125 C-43.82977783 292.94880844 -43.19080566 293.32730438 -42.5324707 293.7172699 C-33.99947642 298.77449759 -25.4973674 303.88319583 -17 309 C-25.68364146 294.07996993 -34.43018024 279.20624258 -43.42306519 264.47009277 C-49.18726235 255.02200771 -54.86362359 245.52484571 -60.5 236 C-66.44031075 225.96290768 -72.4283432 215.9582 -78.5 206 C-84.57166751 196.04178243 -90.55847508 186.03638612 -96.5 176 C-102.40559499 166.03033315 -108.3278335 156.07121614 -114.32373047 146.15551758 C-115.05723276 144.94174976 -115.78952359 143.72724887 -116.52050781 142.51196289 C-117.52959935 140.83522824 -118.54398716 139.16168446 -119.55859375 137.48828125 C-120.12892334 136.54509033 -120.69925293 135.60189941 -121.28686523 134.63012695 C-123.02099926 131.96776044 -125.01513864 129.4810767 -127 127 C-85.09 85.09 -43.18 43.18 0 0 Z M-1.97962379 17.73352814 C-2.79633238 18.55208031 -3.61304096 19.37063248 -4.45449829 20.21398926 C-4.90948145 20.66726357 -5.36446461 21.12053788 -5.83323514 21.58754778 C-7.36579191 23.11679446 -8.89106361 24.65310996 -10.41650391 26.18945312 C-11.50995164 27.28346465 -12.60383926 28.37703667 -13.69813538 29.47019958 C-16.67555827 32.44704669 -19.64675791 35.43003711 -22.61691713 38.41412926 C-25.71902609 41.52870803 -28.82676825 44.63765527 -31.93392944 47.74719238 C-37.82046747 53.63995623 -43.70188708 59.53780153 -49.58150613 65.43746805 C-56.27398531 72.152272 -62.97211822 78.86142395 -69.67074323 85.57009602 C-83.4534837 99.37376345 -97.22907176 113.18454884 -111 127 C-105.90271127 133.16415313 -100.3433222 138.79193521 -94.68017578 144.43334961 C-93.64460615 145.4686367 -92.6092576 146.50414496 -91.57411194 147.53985596 C-88.78133572 150.33291752 -85.9855006 153.12289844 -83.18908167 155.91231227 C-80.26047421 158.83464239 -77.33472341 161.75982974 -74.40866089 164.68470764 C-68.87535066 170.21491743 -63.33949764 175.74257448 -57.80271327 181.26930577 C-51.49599423 187.56482362 -45.19213529 193.86320208 -38.88850808 200.16181552 C-25.92883889 213.11104948 -12.96560473 226.05670923 0 239 C3.58592537 237.47800665 5.8793792 235.36744251 8.61907959 232.62142944 C9.54172104 231.70153732 10.46436249 230.7816452 11.41496277 229.83387756 C12.43005519 228.81170737 13.44505136 227.78944158 14.45996094 226.76708984 C15.53399927 225.69248727 16.60847838 224.6183251 17.68336487 223.54457092 C20.5986874 220.6298224 23.50780072 217.70894689 26.41584682 214.78694105 C29.45653627 211.73375233 32.50288731 208.68622334 35.54864502 205.63809204 C41.31470672 199.86581322 47.07565104 194.08845491 52.83477902 188.30925906 C59.39186433 181.72982199 65.95462699 175.15606047 72.51787519 168.58277202 C86.01824844 155.06149151 99.51146743 141.53309201 113 128 C107.90579729 121.84476339 102.35977461 116.21122521 96.71191406 110.56665039 C95.67960645 109.5313457 94.64750247 108.49583793 93.61558533 107.46014404 C90.83112413 104.66690326 88.04347867 101.87686209 85.2549448 99.08768773 C83.51257028 97.34460028 81.77091058 95.60080187 80.02950287 93.85674858 C73.95431838 87.77233697 67.87658094 81.69048924 61.79638672 75.61108398 C56.12609601 69.94139623 50.4614309 64.26613011 44.79932046 58.58827406 C39.93397482 53.70988031 35.0648096 48.83532168 30.19261527 43.96376795 C27.2839578 41.05536588 24.37688717 38.14541917 21.47364044 35.23161507 C18.7496872 32.49802459 16.02103348 29.76921761 13.28860664 27.0440979 C12.28467829 26.04122024 11.28247087 25.03661659 10.2820797 24.03021049 C8.92143679 22.66191447 7.55407994 21.3003044 6.18634033 19.93910217 C5.42167072 19.1738878 4.65700111 18.40867342 3.8691597 17.62027073 C1.23931126 15.34060118 0.63226665 15.44633317 -1.97962379 17.73352814 Z M-88 167 C-86.49981509 171.1033766 -84.48684413 174.77092836 -82.24609375 178.50390625 C-81.87368057 179.13054672 -81.5012674 179.75718719 -81.11756897 180.40281677 C-79.89452248 182.4582404 -78.66614179 184.51041689 -77.4375 186.5625 C-76.57533266 188.00835135 -75.7133561 189.45431648 -74.8515625 190.90039062 C-69.10502388 200.53161979 -63.29949885 210.12624777 -57.46212769 219.70266724 C-51.73816725 229.09419055 -46.1021945 238.53539567 -40.5 248 C-32.43747395 261.61848784 -24.26510505 275.16628516 -16.02539062 288.67822266 C-13.95765924 292.0694417 -11.89252487 295.46222071 -9.828125 298.85546875 C-6.55351655 304.23785267 -3.2774192 309.61932718 0 315 C3.9610941 313.6796353 4.36517686 312.13539314 6.4140625 308.54296875 C6.740578 307.97739258 7.06709351 307.41181641 7.40350342 306.82910156 C8.11210561 305.59989793 8.81669785 304.36837603 9.51776123 303.13485718 C11.41509559 299.79791868 13.3425456 296.47839484 15.265625 293.15625 C15.66063202 292.47201462 16.05563904 291.78777924 16.46261597 291.08280945 C20.33396257 284.38920503 24.34068556 277.78404645 28.375 271.1875 C34.49258254 261.16922438 40.52162779 251.10193553 46.5 241 C52.48880199 230.88407955 58.51768905 220.79484912 64.625 210.75 C65.30546387 209.62932129 65.98592773 208.50864258 66.68701172 207.35400391 C69.98755689 201.92548594 73.30104188 196.50569185 76.64053345 191.10107422 C78.25172593 188.4913654 79.85698657 185.87803461 81.46160889 183.26428223 C82.23273294 182.0120198 83.00683169 180.76158394 83.78399658 179.51306152 C84.85533386 177.79178234 85.91622958 176.06401727 86.9765625 174.3359375 C87.58580566 173.35157715 88.19504883 172.3672168 88.82275391 171.35302734 C89.40549072 170.18827881 89.40549072 170.18827881 90 169 C89.67 168.34 89.34 167.68 89 167 C60.29 195.71 31.58 224.42 2 254 C-1.45356542 252.27321729 -3.08344627 251.16356242 -5.70121765 248.53256226 C-6.42047424 247.81460983 -7.13973083 247.09665741 -7.88078308 246.35694885 C-8.65964371 245.56932663 -9.43850433 244.78170441 -10.2409668 243.97021484 C-11.06899811 243.14086929 -11.89702942 242.31152374 -12.75015259 241.45704651 C-15.4877966 238.71290757 -18.21840299 235.96187016 -20.94921875 233.2109375 C-22.84571133 231.30696118 -24.74386077 229.40464041 -26.64204407 227.50234985 C-31.1281911 223.00483106 -35.609637 218.50266136 -40.08905488 213.99844134 C-48.12080444 205.92230603 -56.15821415 197.85181275 -64.20079166 189.78646052 C-66.56061515 187.41959312 -68.91912514 185.05144282 -71.27487755 182.68052292 C-73.89690933 180.04193285 -76.52179035 177.40620776 -79.1472168 174.77099609 C-79.93215012 173.97932541 -80.71708344 173.18765472 -81.52580261 172.37199402 C-82.23659973 171.65968124 -82.94739685 170.94736847 -83.67973328 170.21347046 C-84.30043544 169.58924887 -84.9211376 168.96502728 -85.56064892 168.32188988 C-86.79704375 166.88726413 -86.79704375 166.88726413 -88 167 Z M-200.85657597 216.73352814 C-202.08302153 217.96135639 -202.08302153 217.96135639 -203.33424377 219.21398926 C-203.78837251 219.66726357 -204.24250125 220.12053788 -204.71039146 220.58754778 C-206.24364545 222.11914418 -207.77327941 223.65430683 -209.30297852 225.18945312 C-210.39649349 226.28324994 -211.49022826 227.37682707 -212.58416748 228.47019958 C-215.56352986 231.44927386 -218.53978879 234.43143165 -221.5155232 237.41412926 C-224.62209049 240.5269279 -227.73147075 243.63691397 -230.84056091 246.74719238 C-236.73220645 252.64195189 -242.62129723 258.53925693 -248.50948709 264.43746805 C-255.21116696 271.15030704 -261.91567063 277.86032267 -268.62041962 284.57009602 C-282.41677003 298.3769123 -296.20954873 312.18729169 -310 326 C-308.47800665 329.58592537 -306.36744251 331.8793792 -303.62142944 334.61907959 C-302.70153732 335.54172104 -301.7816452 336.46436249 -300.83387756 337.41496277 C-299.81170737 338.43005519 -298.78944158 339.44505136 -297.76708984 340.45996094 C-296.69248727 341.53399927 -295.6183251 342.60847838 -294.54457092 343.68336487 C-291.6298224 346.5986874 -288.70894689 349.50780072 -285.78694105 352.41584682 C-282.73375233 355.45653627 -279.68622334 358.50288731 -276.63809204 361.54864502 C-270.86581322 367.31470672 -265.08845491 373.07565104 -259.30925906 378.83477902 C-252.72982199 385.39186433 -246.15606047 391.95462699 -239.58277202 398.51787519 C-226.06149151 412.01824844 -212.53309201 425.51146743 -199 439 C-192.83584687 433.90271127 -187.20806479 428.3433222 -181.56665039 422.68017578 C-180.5313633 421.64460615 -179.49585504 420.6092576 -178.46014404 419.57411194 C-175.66708248 416.78133572 -172.87710156 413.9855006 -170.08768773 411.18908167 C-167.16535761 408.26047421 -164.24017026 405.33472341 -161.31529236 402.40866089 C-155.78508257 396.87535066 -150.25742552 391.33949764 -144.73069423 385.80271327 C-138.43517638 379.49599423 -132.13679792 373.19213529 -125.83818448 366.88850808 C-112.88895052 353.92883889 -99.94329077 340.96560473 -87 328 C-88.52167519 324.41689893 -90.62987013 322.12102609 -93.37184143 319.38092041 C-94.29028839 318.45827896 -95.20873535 317.53563751 -96.15501404 316.58503723 C-97.17559337 315.56994099 -98.19627238 314.55494495 -99.21704102 313.54003906 C-100.29001398 312.465993 -101.3625538 311.39151409 -102.43469238 310.31663513 C-105.34527005 307.40121185 -108.26205641 304.49207389 -111.18012738 301.58415318 C-114.22988971 298.54317117 -117.27438206 295.49692159 -120.31956482 292.45135498 C-125.43156346 287.34029267 -130.54741999 282.23311794 -135.66577148 277.12841797 C-141.5915129 271.21842273 -147.51199058 265.30319624 -153.4294973 259.3849566 C-159.1156176 253.69822706 -164.8045845 248.01435475 -170.49516106 242.33208466 C-172.92057676 239.91020821 -175.34513341 237.48747646 -177.76904488 235.06409454 C-180.61891598 232.21522426 -183.47131044 229.36890484 -186.32572174 226.52458382 C-187.37594835 225.47729004 -188.42531811 224.42913625 -189.47379112 223.3800869 C-190.89859794 221.9547931 -192.32676909 220.53286479 -193.75514221 219.11114502 C-194.55542626 218.31253681 -195.35571032 217.5139286 -196.1802454 216.69112015 C-198.5164682 214.41872381 -198.5164682 214.41872381 -200.85657597 216.73352814 Z M198.14342403 216.73352814 C196.91697847 217.96135639 196.91697847 217.96135639 195.66575623 219.21398926 C195.21162749 219.66726357 194.75749875 220.12053788 194.28960854 220.58754778 C192.75635455 222.11914418 191.22672059 223.65430683 189.69702148 225.18945312 C188.60350651 226.28324994 187.50977174 227.37682707 186.41583252 228.47019958 C183.43647014 231.44927386 180.46021121 234.43143165 177.4844768 237.41412926 C174.37790951 240.5269279 171.26852925 243.63691397 168.15943909 246.74719238 C162.26779355 252.64195189 156.37870277 258.53925693 150.49051291 264.43746805 C143.78883304 271.15030704 137.08432937 277.86032267 130.37958038 284.57009602 C116.58322997 298.3769123 102.79045127 312.18729169 89 326 C90.52199335 329.58592537 92.63255749 331.8793792 95.37857056 334.61907959 C96.29846268 335.54172104 97.2183548 336.46436249 98.16612244 337.41496277 C99.18829263 338.43005519 100.21055842 339.44505136 101.23291016 340.45996094 C102.30751273 341.53399927 103.3816749 342.60847838 104.45542908 343.68336487 C107.3701776 346.5986874 110.29105311 349.50780072 113.21305895 352.41584682 C116.26624767 355.45653627 119.31377666 358.50288731 122.36190796 361.54864502 C128.13418678 367.31470672 133.91154509 373.07565104 139.69074094 378.83477902 C146.27017801 385.39186433 152.84393953 391.95462699 159.41722798 398.51787519 C172.93850849 412.01824844 186.46690799 425.51146743 200 439 C206.16415313 433.90271127 211.79193521 428.3433222 217.43334961 422.68017578 C218.4686367 421.64460615 219.50414496 420.6092576 220.53985596 419.57411194 C223.33291752 416.78133572 226.12289844 413.9855006 228.91231227 411.18908167 C231.83464239 408.26047421 234.75982974 405.33472341 237.68470764 402.40866089 C243.21491743 396.87535066 248.74257448 391.33949764 254.26930577 385.80271327 C260.56482362 379.49599423 266.86320208 373.19213529 273.16181552 366.88850808 C286.11104948 353.92883889 299.05670923 340.96560473 312 328 C310.47832481 324.41689893 308.37012987 322.12102609 305.62815857 319.38092041 C304.70971161 318.45827896 303.79126465 317.53563751 302.84498596 316.58503723 C301.82440663 315.56994099 300.80372762 314.55494495 299.78295898 313.54003906 C298.70998602 312.465993 297.6374462 311.39151409 296.56530762 310.31663513 C293.65472995 307.40121185 290.73794359 304.49207389 287.81987262 301.58415318 C284.77011029 298.54317117 281.72561794 295.49692159 278.68043518 292.45135498 C273.56843654 287.34029267 268.45258001 282.23311794 263.33422852 277.12841797 C257.4084871 271.21842273 251.48800942 265.30319624 245.5705027 259.3849566 C239.8843824 253.69822706 234.1954155 248.01435475 228.50483894 242.33208466 C226.07942324 239.91020821 223.65486659 237.48747646 221.23095512 235.06409454 C218.38108402 232.21522426 215.52868956 229.36890484 212.67427826 226.52458382 C211.62405165 225.47729004 210.57468189 224.42913625 209.52620888 223.3800869 C208.10140206 221.9547931 206.67323091 220.53286479 205.24485779 219.11114502 C204.44457374 218.31253681 203.64428968 217.5139286 202.8197546 216.69112015 C200.4835318 214.41872381 200.4835318 214.41872381 198.14342403 216.73352814 Z M-159 238 C-154.535788 243.34695977 -149.8191737 248.31846816 -144.88330078 253.23022461 C-144.09238541 254.02128601 -143.30147003 254.81234741 -142.48658752 255.62738037 C-139.89186111 258.22141442 -137.2936189 260.81189602 -134.6953125 263.40234375 C-132.88762933 265.20816034 -131.08016794 267.01419896 -129.2729187 268.82044983 C-125.01442329 273.07552727 -120.75371057 277.32837186 -116.49189556 281.58012348 C-111.63617012 286.42463409 -106.78331665 291.27201732 -101.930691 296.1196326 C-91.95696499 306.08293322 -81.9796745 316.0426579 -72 326 C-73.39636521 329.15227151 -75.03170975 331.27940382 -77.46743774 333.70794678 C-78.18539017 334.42864853 -78.90334259 335.14935028 -79.64305115 335.89189148 C-80.43067337 336.67232315 -81.21829559 337.45275482 -82.02978516 338.25683594 C-83.27380348 339.50129234 -83.27380348 339.50129234 -84.54295349 340.77088928 C-87.28694281 343.51348464 -90.03794973 346.2489268 -92.7890625 348.984375 C-94.69291568 350.88338767 -96.59526595 352.7839031 -98.49765015 354.68438721 C-102.99495491 359.17547851 -107.49733311 363.66144767 -112.00155866 368.14559674 C-117.13000044 373.25167538 -122.25275698 378.36344159 -127.37504506 383.47569227 C-137.91038522 393.99013346 -148.45283982 404.49741465 -159 415 C-155.20813472 415 -153.60678656 413.80691855 -150.34765625 411.87890625 C-149.78490997 411.5481459 -149.2221637 411.21738556 -148.6423645 410.87660217 C-146.77845498 409.77844741 -144.92046639 408.67067575 -143.0625 407.5625 C-141.74998345 406.78591079 -140.43723569 406.00971224 -139.12426758 405.23388672 C-129.28173761 399.40619392 -119.50096994 393.47726698 -109.73657227 387.51977539 C-100.86504754 382.11041874 -91.94199432 376.79191364 -83 371.5 C-69.46050443 363.4843816 -55.99376833 355.35670415 -42.55859375 347.16748047 C-36.76178298 343.63522616 -30.95757613 340.11513645 -25.15441895 336.59332275 C-22.14958266 334.76963886 -19.14511808 332.94534301 -16.140625 331.12109375 C-14.42708333 330.08072917 -12.71354167 329.04036458 -11 328 C-12.3203647 324.0389059 -13.86460686 323.63482314 -17.45703125 321.5859375 C-18.02260742 321.259422 -18.58818359 320.93290649 -19.17089844 320.59649658 C-20.40010207 319.88789439 -21.63162397 319.18330215 -22.86514282 318.48223877 C-26.20208132 316.58490441 -29.52160516 314.6574544 -32.84375 312.734375 C-33.52798538 312.33936798 -34.21222076 311.94436096 -34.91719055 311.53738403 C-41.61079497 307.66603743 -48.21595355 303.65931444 -54.8125 299.625 C-64.83077562 293.50741746 -74.89806447 287.47837221 -85 281.5 C-95.1159032 275.51120822 -105.20587034 269.48347432 -115.25 263.375 C-116.37067871 262.69381104 -117.49135742 262.01262207 -118.64599609 261.31079102 C-124.06895621 258.01089364 -129.48693193 254.70309321 -134.89892578 251.38525391 C-137.50975963 249.78560015 -140.1226034 248.18924776 -142.73571777 246.59332275 C-143.987159 245.82771758 -145.23758166 245.0604448 -146.48693848 244.29144287 C-148.2102316 243.23072644 -149.93706059 242.17576096 -151.6640625 241.12109375 C-153.14060303 240.21508423 -153.14060303 240.21508423 -154.64697266 239.29077148 C-156.84494833 237.83968411 -156.84494833 237.83968411 -159 238 Z M159 238 C156.56267906 239.1753258 156.56267906 239.1753258 153.8046875 240.953125 C152.71285156 241.62537109 151.62101563 242.29761719 150.49609375 242.99023438 C149.90812012 243.35721436 149.32014648 243.72419434 148.71435547 244.10229492 C145.54611888 246.07918372 142.36155368 248.02952987 139.1796875 249.984375 C138.17769318 250.60155396 138.17769318 250.60155396 137.15545654 251.23120117 C130.48510234 255.33377032 123.75314936 259.32935667 117.01080322 263.31213379 C105.72461826 269.97935891 94.48443857 276.71597447 83.29302979 283.54098511 C73.86380169 289.28919733 64.38038555 294.94125376 54.875 300.5625 C40.81392223 308.878102 26.87633704 317.37957805 13 326 C14.3203647 329.9610941 15.86460686 330.36517686 19.45703125 332.4140625 C20.02260742 332.740578 20.58818359 333.06709351 21.17089844 333.40350342 C22.40010207 334.11210561 23.63162397 334.81669785 24.86514282 335.51776123 C28.20208132 337.41509559 31.52160516 339.3425456 34.84375 341.265625 C35.52798538 341.66063202 36.21222076 342.05563904 36.91719055 342.46261597 C43.61079497 346.33396257 50.21595355 350.34068556 56.8125 354.375 C66.83077562 360.49258254 76.89806447 366.52162779 87 372.5 C97.11592045 378.48880199 107.20515088 384.51768905 117.25 390.625 C118.37067871 391.30546387 119.49135742 391.98592773 120.64599609 392.68701172 C126.07451406 395.98755689 131.49430815 399.30104188 136.89892578 402.64053345 C139.5086346 404.25172593 142.12196539 405.85698657 144.73571777 407.46160889 C145.9879802 408.23273294 147.23841606 409.00683169 148.48693848 409.78399658 C150.20821766 410.85533386 151.93598273 411.91622958 153.6640625 412.9765625 C154.64842285 413.58580566 155.6327832 414.19504883 156.64697266 414.82275391 C157.42347168 415.21124512 158.1999707 415.59973633 159 416 C159.66 415.67 160.32 415.34 161 415 C132.29 386.29 103.58 357.58 74 328 C75.72599522 324.54800957 76.83968488 322.9120546 79.46743774 320.29205322 C80.18539017 319.57135147 80.90334259 318.85064972 81.64305115 318.10810852 C82.43067337 317.32767685 83.21829559 316.54724518 84.02978516 315.74316406 C85.27380348 314.49870766 85.27380348 314.49870766 86.54295349 313.22911072 C89.28694281 310.48651536 92.03794973 307.7510732 94.7890625 305.015625 C96.69291568 303.11661233 98.59526595 301.2160969 100.49765015 299.31561279 C104.99495491 294.82452149 109.49733311 290.33855233 114.00155866 285.85440326 C119.13000044 280.74832462 124.25275698 275.63655841 129.37504506 270.52430773 C139.91038522 260.00986654 150.45283982 249.50258535 161 239 C160.01 238.505 160.01 238.505 159 238 Z M0 339 C-1.60196876 341.16211122 -1.60196876 341.16211122 -3.24609375 344 C-3.90867187 345.09828125 -4.57125 346.1965625 -5.25390625 347.328125 C-5.9819372 348.55198438 -6.70979659 349.77594583 -7.4375 351 C-8.19734419 352.26596878 -8.95777181 353.53158754 -9.71875 354.796875 C-12.15713765 358.85787807 -14.58006994 362.92797799 -17 367 C-17.59376434 367.99870117 -17.59376434 367.99870117 -18.19952393 369.01757812 C-21.77472006 375.03215342 -25.34543908 381.04937599 -28.90991211 387.0703125 C-34.38998799 396.32191403 -39.94243864 405.52667359 -45.54098511 414.70697021 C-51.69628044 424.8039676 -57.74398882 434.96223198 -63.75524902 445.14556885 C-68.03077199 452.3867432 -72.34185637 459.59947411 -76.79296875 466.734375 C-77.36278221 467.64961441 -77.36278221 467.64961441 -77.94410706 468.58334351 C-79.74014429 471.46538561 -81.54548358 474.34047616 -83.36547852 477.20751953 C-83.99252686 478.20895996 -84.6195752 479.21040039 -85.265625 480.2421875 C-85.82024414 481.1172998 -86.37486328 481.99241211 -86.94628906 482.89404297 C-87.29401367 483.58900879 -87.64173828 484.28397461 -88 485 C-87.67 485.66 -87.34 486.32 -87 487 C-58.29 458.29 -29.58 429.58 0 400 C3.45199043 401.72599522 5.0879454 402.83968488 7.70794678 405.46743774 C8.42864853 406.18539017 9.14935028 406.90334259 9.89189148 407.64305115 C10.67232315 408.43067337 11.45275482 409.21829559 12.25683594 410.02978516 C13.50129234 411.27380348 13.50129234 411.27380348 14.77088928 412.54295349 C17.51348464 415.28694281 20.2489268 418.03794973 22.984375 420.7890625 C24.88338767 422.69291568 26.7839031 424.59526595 28.68438721 426.49765015 C33.17547851 430.99495491 37.66144767 435.49733311 42.14559674 440.00155866 C47.25167538 445.13000044 52.36344159 450.25275698 57.47569227 455.37504506 C67.99013346 465.91038522 78.49741465 476.45283982 89 487 C89 483.20813472 87.80691855 481.60678656 85.87890625 478.34765625 C85.5481459 477.78490997 85.21738556 477.2221637 84.87660217 476.6423645 C83.77844741 474.77845498 82.67067575 472.92046639 81.5625 471.0625 C80.78591079 469.74998345 80.00971224 468.43723569 79.23388672 467.12426758 C73.40619392 457.28173761 67.47726698 447.50096994 61.51977539 437.73657227 C56.11041874 428.86504754 50.79191364 419.94199432 45.5 411 C38.1619755 398.60505487 30.74053909 386.26497806 23.23828125 373.96875 C20.618869 369.67338133 18.01758839 365.3681913 15.43682861 361.04949951 C13.86251545 358.41566124 12.2829925 355.78496495 10.70318604 353.15441895 C9.94697145 351.89188978 9.19331755 350.62782307 8.44232178 349.36218262 C7.40690592 347.61775537 6.36190288 345.87902922 5.31640625 344.140625 C4.42610718 342.64837402 4.42610718 342.64837402 3.51782227 341.12597656 C2.76650024 340.07361816 2.76650024 340.07361816 2 339 C1.34 339 0.68 339 0 339 Z M-1.97962379 416.73352814 C-2.79633238 417.55208031 -3.61304096 418.37063248 -4.45449829 419.21398926 C-4.90948145 419.66726357 -5.36446461 420.12053788 -5.83323514 420.58754778 C-7.36579191 422.11679446 -8.89106361 423.65310996 -10.41650391 425.18945312 C-11.50995164 426.28346465 -12.60383926 427.37703667 -13.69813538 428.47019958 C-16.67555827 431.44704669 -19.64675791 434.43003711 -22.61691713 437.41412926 C-25.71902609 440.52870803 -28.82676825 443.63765527 -31.93392944 446.74719238 C-37.82046747 452.63995623 -43.70188708 458.53780153 -49.58150613 464.43746805 C-56.27398531 471.152272 -62.97211822 477.86142395 -69.67074323 484.57009602 C-83.4534837 498.37376345 -97.22907176 512.18454884 -111 526 C-105.90271127 532.16415313 -100.3433222 537.79193521 -94.68017578 543.43334961 C-93.64460615 544.4686367 -92.6092576 545.50414496 -91.57411194 546.53985596 C-88.78133572 549.33291752 -85.9855006 552.12289844 -83.18908167 554.91231227 C-80.26047421 557.83464239 -77.33472341 560.75982974 -74.40866089 563.68470764 C-68.87535066 569.21491743 -63.33949764 574.74257448 -57.80271327 580.26930577 C-51.49599423 586.56482362 -45.19213529 592.86320208 -38.88850808 599.16181552 C-25.92883889 612.11104948 -12.96560473 625.05670923 0 638 C3.58592537 636.47800665 5.8793792 634.36744251 8.61907959 631.62142944 C9.54172104 630.70153732 10.46436249 629.7816452 11.41496277 628.83387756 C12.43005519 627.81170737 13.44505136 626.78944158 14.45996094 625.76708984 C15.53399927 624.69248727 16.60847838 623.6183251 17.68336487 622.54457092 C20.5986874 619.6298224 23.50780072 616.70894689 26.41584682 613.78694105 C29.45653627 610.73375233 32.50288731 607.68622334 35.54864502 604.63809204 C41.31470672 598.86581322 47.07565104 593.08845491 52.83477902 587.30925906 C59.39186433 580.72982199 65.95462699 574.15606047 72.51787519 567.58277202 C86.01824844 554.06149151 99.51146743 540.53309201 113 527 C107.90579729 520.84476339 102.35977461 515.21122521 96.71191406 509.56665039 C95.67960645 508.5313457 94.64750247 507.49583793 93.61558533 506.46014404 C90.83112413 503.66690326 88.04347867 500.87686209 85.2549448 498.08768773 C83.51257028 496.34460028 81.77091058 494.60080187 80.02950287 492.85674858 C73.95431838 486.77233697 67.87658094 480.69048924 61.79638672 474.61108398 C56.12609601 468.94139623 50.4614309 463.26613011 44.79932046 457.58827406 C39.93397482 452.70988031 35.0648096 447.83532168 30.19261527 442.96376795 C27.2839578 440.05536588 24.37688717 437.14541917 21.47364044 434.23161507 C18.7496872 431.49802459 16.02103348 428.76921761 13.28860664 426.0440979 C12.28467829 425.04122024 11.28247087 424.03661659 10.2820797 423.03021049 C8.92143679 421.66191447 7.55407994 420.3003044 6.18634033 418.93910217 C5.42167072 418.1738878 4.65700111 417.40867342 3.8691597 416.62027073 C1.23931126 414.34060118 0.63226665 414.44633317 -1.97962379 416.73352814 Z " fill="#cfc9b1" transform="translate(326,0)"/>
</svg>
